<svg width="34" height="34" viewBox="0 0 34 34" fill="none" xmlns="http://www.w3.org/2000/svg">
<path fill-rule="evenodd" clip-rule="evenodd" d="M17.2587 33.404C17.0801 33.4174 16.9008 33.4174 16.7222 33.404C15.9528 33.3464 15.3293 32.9992 14.7596 32.5535C14.2238 32.1342 13.631 31.5414 12.9377 30.8481L12.8892 30.7995C12.1913 30.1017 12.0334 29.9673 11.8651 29.8901C11.8357 29.8766 11.8058 29.8642 11.7755 29.853C11.6019 29.7886 11.3952 29.7719 10.4083 29.7719L10.1654 29.7719C9.07882 29.772 8.15009 29.772 7.40793 29.6723C6.61548 29.5657 5.86648 29.3269 5.26026 28.7206C4.65404 28.1144 4.4152 27.3654 4.30865 26.573C4.20887 25.8308 4.20892 24.9021 4.20898 23.8155V23.5726C4.20898 22.5857 4.19234 22.379 4.12793 22.2054C4.11667 22.1751 4.10428 22.1452 4.09079 22.1158C4.01359 21.9475 3.87921 21.7896 3.18138 21.0917L3.1328 21.0432C2.43947 20.3499 1.84665 19.7571 1.42743 19.2213C0.981705 18.6516 0.634537 18.0281 0.576878 17.2587C0.563496 17.0801 0.563496 16.9008 0.576878 16.7222C0.634537 15.9528 0.981709 15.3293 1.42743 14.7596C1.84665 14.2238 2.43947 13.631 3.1328 12.9377L3.18138 12.8892C3.87921 12.1913 4.01359 12.0334 4.09079 11.8651C4.10428 11.8357 4.11667 11.8058 4.12793 11.7755C4.19234 11.6019 4.20898 11.3952 4.20898 10.4083V10.1654C4.20892 9.07884 4.20887 8.1501 4.30865 7.40793C4.4152 6.61548 4.65404 5.86648 5.26026 5.26026C5.86648 4.65404 6.61548 4.4152 7.40793 4.30865C8.1501 4.20887 9.07884 4.20892 10.1654 4.20898H10.4083C11.3952 4.20898 11.6019 4.19234 11.7755 4.12793C11.8058 4.11667 11.8357 4.10428 11.8651 4.09079C12.0334 4.01359 12.1913 3.87921 12.8892 3.18138L12.9377 3.1328C13.631 2.43947 14.2238 1.84665 14.7596 1.42743C15.3293 0.981705 15.9528 0.634537 16.7222 0.576878C16.9008 0.563496 17.0801 0.563496 17.2587 0.576878C18.0281 0.634537 18.6516 0.981709 19.2213 1.42743C19.7571 1.84665 20.3499 2.43947 21.0432 3.1328L21.0917 3.18138C21.7896 3.87921 21.9475 4.01359 22.1158 4.09079C22.1452 4.10428 22.1751 4.11667 22.2054 4.12793C22.379 4.19234 22.5857 4.20898 23.5726 4.20898H23.8155C24.9021 4.20892 25.8308 4.20887 26.573 4.30865C27.3654 4.4152 28.1144 4.65404 28.7206 5.26026C29.3269 5.86648 29.5657 6.61548 29.6723 7.40793C29.772 8.15009 29.772 9.07882 29.7719 10.1654L29.7719 10.4083C29.7719 11.3952 29.7886 11.6019 29.853 11.7755C29.8642 11.8058 29.8766 11.8357 29.8901 11.8651C29.9673 12.0334 30.1017 12.1913 30.7995 12.8892L30.8481 12.9377C31.5414 13.631 32.1342 14.2238 32.5535 14.7596C32.9992 15.3293 33.3464 15.9528 33.404 16.7222C33.4174 16.9008 33.4174 17.0801 33.404 17.2587C33.3464 18.0281 32.9992 18.6516 32.5535 19.2213C32.1342 19.7571 31.5414 20.3499 30.8481 21.0432L30.7995 21.0917C30.1017 21.7896 29.9673 21.9475 29.8901 22.1158C29.8766 22.1452 29.8642 22.1751 29.853 22.2054C29.7886 22.379 29.7719 22.5857 29.7719 23.5726L29.7719 23.8155C29.772 24.9021 29.772 25.8308 29.6723 26.573C29.5657 27.3654 29.3269 28.1144 28.7206 28.7206C28.1144 29.3269 27.3654 29.5657 26.573 29.6723C25.8308 29.772 24.9021 29.772 23.8155 29.7719L23.5726 29.7719C22.5857 29.7719 22.379 29.7886 22.2054 29.853C22.1751 29.8642 22.1452 29.8766 22.1158 29.8901C21.9475 29.9673 21.7896 30.1017 21.0917 30.7995L21.0432 30.8481C20.3499 31.5414 19.7571 32.1342 19.2213 32.5535C18.6516 32.9992 18.0281 33.3464 17.2587 33.404ZM16.8935 31.1188C16.958 31.1236 17.0229 31.1236 17.0874 31.1188C17.2221 31.1087 17.4181 31.0546 17.8092 30.7486C18.2217 30.4258 18.7159 29.9344 19.4713 29.1791C19.5068 29.1436 19.5419 29.1084 19.5767 29.0735C20.1099 28.539 20.5695 28.0781 21.1602 27.8072C21.2416 27.7698 21.3243 27.7356 21.4082 27.7044C22.0175 27.4784 22.6684 27.4792 23.4234 27.4801C23.4727 27.4802 23.5224 27.4803 23.5726 27.4803H23.7391C24.9234 27.4803 25.6963 27.4778 26.2676 27.401C26.8059 27.3286 26.9907 27.2096 27.1002 27.1002C27.2096 26.9907 27.3286 26.8059 27.401 26.2676C27.4778 25.6963 27.4803 24.9234 27.4803 23.7391V23.5726C27.4803 23.5224 27.4802 23.4727 27.4801 23.4234C27.4792 22.6684 27.4784 22.0175 27.7044 21.4082C27.7356 21.3243 27.7698 21.2416 27.8072 21.1602C28.0781 20.5695 28.539 20.1099 29.0735 19.5767C29.1084 19.5419 29.1436 19.5068 29.1791 19.4713C29.9344 18.7159 30.4258 18.2217 30.7486 17.8092C31.0546 17.4181 31.1087 17.2221 31.1188 17.0874C31.1236 17.0229 31.1236 16.958 31.1188 16.8935C31.1087 16.7588 31.0546 16.5628 30.7486 16.1717C30.4258 15.7592 29.9344 15.265 29.1791 14.5096C29.1436 14.4741 29.1084 14.439 29.0735 14.4042C28.539 13.871 28.0781 13.4114 27.8072 12.8207C27.7698 12.7393 27.7356 12.6566 27.7044 12.5727C27.4784 11.9634 27.4792 11.3125 27.4801 10.5575C27.4802 10.5082 27.4803 10.4585 27.4803 10.4083V10.2418C27.4803 9.05752 27.4778 8.28459 27.401 7.71329C27.3286 7.17496 27.2096 6.99017 27.1002 6.88071C26.9907 6.77126 26.806 6.65226 26.2676 6.57988C25.6963 6.50307 24.9234 6.50064 23.7391 6.50064H23.5726C23.5224 6.50064 23.4727 6.50071 23.4234 6.50077C22.6684 6.50172 22.0175 6.50253 21.4082 6.27646C21.3243 6.24533 21.2416 6.21107 21.1602 6.17374C20.5695 5.90277 20.1099 5.44194 19.5767 4.90739C19.5419 4.87251 19.5068 4.83731 19.4713 4.80184C18.7159 4.04649 18.2217 3.55507 17.8092 3.23233C17.4181 2.92633 17.2221 2.87223 17.0874 2.86214C17.0229 2.8573 16.958 2.8573 16.8935 2.86214C16.7588 2.87223 16.5628 2.92633 16.1717 3.23232C15.7592 3.55506 15.265 4.04648 14.5096 4.80183C14.4741 4.83731 14.439 4.87251 14.4042 4.90739C13.871 5.44193 13.4114 5.90277 12.8207 6.17374C12.7393 6.21106 12.6566 6.24533 12.5727 6.27646C11.9634 6.50253 11.3125 6.50172 10.5575 6.50077C10.5082 6.50071 10.4585 6.50064 10.4083 6.50064H10.2418C9.05752 6.50064 8.28459 6.50307 7.71329 6.57988C7.17495 6.65226 6.99017 6.77126 6.88071 6.88071C6.77126 6.99017 6.65226 7.17495 6.57988 7.71329C6.50307 8.28459 6.50064 9.05752 6.50064 10.2418V10.4083C6.50064 10.4585 6.50071 10.5082 6.50077 10.5575C6.50172 11.3125 6.50253 11.9634 6.27646 12.5727C6.24533 12.6566 6.21106 12.7393 6.17374 12.8207C5.90277 13.4114 5.44194 13.871 4.90739 14.4042C4.87251 14.439 4.83731 14.4741 4.80184 14.5096C4.04649 15.265 3.55507 15.7592 3.23233 16.1717C2.92633 16.5628 2.87223 16.7588 2.86214 16.8935C2.8573 16.958 2.8573 17.0229 2.86214 17.0874C2.87223 17.2221 2.92633 17.4181 3.23232 17.8092C3.55506 18.2217 4.04648 18.7159 4.80183 19.4713C4.83731 19.5068 4.87251 19.5419 4.90739 19.5767C5.44194 20.1099 5.90277 20.5695 6.17374 21.1602C6.21107 21.2416 6.24533 21.3243 6.27646 21.4082C6.50253 22.0175 6.50172 22.6684 6.50077 23.4234C6.50071 23.4727 6.50064 23.5224 6.50064 23.5726V23.7391C6.50064 24.9234 6.50307 25.6963 6.57988 26.2676C6.65226 26.806 6.77126 26.9907 6.88071 27.1002C6.99017 27.2096 7.17496 27.3286 7.71329 27.401C8.28459 27.4778 9.05752 27.4803 10.2418 27.4803H10.4083C10.4585 27.4803 10.5082 27.4802 10.5575 27.4801C11.3125 27.4792 11.9634 27.4784 12.5727 27.7044C12.6566 27.7356 12.7393 27.7698 12.8207 27.8072C13.4114 28.0781 13.871 28.539 14.4042 29.0735C14.439 29.1084 14.4741 29.1436 14.5096 29.1791C15.265 29.9344 15.7592 30.4258 16.1717 30.7486C16.5628 31.0546 16.7588 31.1087 16.8935 31.1188Z" fill="url(#paint0_linear_1_994)"/>
<path fill-rule="evenodd" clip-rule="evenodd" d="M11.5882 22.3753C11.1407 21.9279 11.1407 21.2024 11.5882 20.7549L20.7549 11.5882C21.2024 11.1407 21.9279 11.1407 22.3753 11.5882C22.8228 12.0357 22.8228 12.7612 22.3753 13.2087L13.2087 22.3753C12.7612 22.8228 12.0357 22.8228 11.5882 22.3753Z" fill="url(#paint1_linear_1_994)"/>
<path fill-rule="evenodd" clip-rule="evenodd" d="M10.875 12.4028C10.875 11.559 11.559 10.875 12.4028 10.875H12.4192C13.263 10.875 13.947 11.559 13.947 12.4028C13.947 13.2465 13.263 13.9306 12.4192 13.9306H12.4028C11.559 13.9306 10.875 13.2465 10.875 12.4028ZM20.0252 21.5694C20.0252 20.7257 20.7092 20.0417 21.553 20.0417H21.5694C22.4132 20.0417 23.0972 20.7257 23.0972 21.5694C23.0972 22.4132 22.4132 23.0972 21.5694 23.0972H21.553C20.7092 23.0972 20.0252 22.4132 20.0252 21.5694Z" fill="url(#paint2_linear_1_994)"/>
<defs>
<linearGradient id="paint0_linear_1_994" x1="16.9905" y1="33.4141" x2="16.9905" y2="0.566841" gradientUnits="userSpaceOnUse">
<stop stop-color="#C1842D"/>
<stop offset="1" stop-color="#ECC974"/>
</linearGradient>
<linearGradient id="paint1_linear_1_994" x1="16.9818" y1="22.7109" x2="16.9818" y2="11.2526" gradientUnits="userSpaceOnUse">
<stop stop-color="#C1842D"/>
<stop offset="1" stop-color="#ECC974"/>
</linearGradient>
<linearGradient id="paint2_linear_1_994" x1="16.9861" y1="10.875" x2="16.9861" y2="23.0972" gradientUnits="userSpaceOnUse">
<stop stop-color="#C1842D"/>
<stop offset="1" stop-color="#ECC974"/>
</linearGradient>
</defs>
</svg>
