<svg width="34" height="28" viewBox="0 0 34 28" fill="none" xmlns="http://www.w3.org/2000/svg">
<path fill-rule="evenodd" clip-rule="evenodd" d="M24.6233 21.2682C23.5686 21.2682 22.7135 22.1232 22.7135 23.178C22.7135 24.2327 23.5686 25.0877 24.6233 25.0877C25.678 25.0877 26.533 24.2327 26.533 23.178C26.533 22.1232 25.678 21.2682 24.6233 21.2682ZM20.4219 23.178C20.4219 20.8576 22.3029 18.9766 24.6233 18.9766C26.9436 18.9766 28.8247 20.8576 28.8247 23.178C28.8247 25.4983 26.9436 27.3793 24.6233 27.3793C22.3029 27.3793 20.4219 25.4983 20.4219 23.178Z" fill="url(#paint0_linear_1_976)"/>
<path fill-rule="evenodd" clip-rule="evenodd" d="M9.34983 21.2682C8.29512 21.2682 7.4401 22.1232 7.4401 23.178C7.4401 24.2327 8.29512 25.0877 9.34983 25.0877C10.4045 25.0877 11.2595 24.2327 11.2595 23.178C11.2595 22.1232 10.4045 21.2682 9.34983 21.2682ZM5.14844 23.178C5.14844 20.8576 7.02946 18.9766 9.34983 18.9766C11.6702 18.9766 13.5512 20.8576 13.5512 23.178C13.5512 25.4983 11.6702 27.3793 9.34983 27.3793C7.02946 27.3793 5.14844 25.4983 5.14844 23.178Z" fill="url(#paint1_linear_1_976)"/>
<path fill-rule="evenodd" clip-rule="evenodd" d="M17.2845 3.10064C16.8102 2.94654 16.1842 2.9324 14.3889 2.9324H1.70833C1.07551 2.9324 0.5625 2.41939 0.5625 1.78657C0.5625 1.15374 1.07551 0.640733 1.70833 0.640733H14.3889C14.4607 0.640733 14.5315 0.640706 14.6013 0.640678C16.1015 0.640087 17.1264 0.639683 17.9926 0.921139C19.7368 1.48786 21.1043 2.85531 21.671 4.59949C21.9524 5.46572 21.952 6.4906 21.9514 7.99086C21.9514 8.06061 21.9514 8.13139 21.9514 8.20323C21.9514 9.42987 21.9655 9.77143 22.0449 10.0156C22.2338 10.597 22.6896 11.0528 23.271 11.2417C23.5151 11.321 23.8567 11.3352 25.0833 11.3352H32.2639C32.8967 11.3352 33.4097 11.8482 33.4097 12.481V15.6185C33.4098 17.3493 33.4098 18.7636 33.2597 19.8802C33.1027 21.0474 32.7631 22.0593 31.9554 22.867C30.8847 23.9377 29.4455 24.1926 27.7376 24.2778C27.1056 24.3093 26.5677 23.8225 26.5362 23.1904C26.5046 22.5584 26.9915 22.0205 27.6235 21.989C29.2667 21.907 29.9181 21.6634 30.335 21.2465C30.6459 20.9356 30.8657 20.4879 30.9884 19.5749C31.1156 18.6289 31.1181 17.3695 31.1181 15.5366V13.6268H25.0833C25.0228 13.6268 24.9631 13.6269 24.9042 13.6269C23.9435 13.6277 23.2001 13.6283 22.5628 13.4212C21.2837 13.0056 20.2809 12.0028 19.8654 10.7238C19.6583 10.0865 19.6589 9.34306 19.6596 8.38242C19.6597 8.32351 19.6597 8.26379 19.6597 8.20323C19.6597 6.40787 19.6456 5.78195 19.4915 5.30765C19.1514 4.26115 18.331 3.44067 17.2845 3.10064ZM1.69338 17.4477C2.32542 17.4162 2.86333 17.903 2.89484 18.5351C2.97674 20.1782 3.22035 20.8296 3.63725 21.2465C4.05415 21.6634 4.70554 21.907 6.34871 21.989C6.98075 22.0205 7.46758 22.5584 7.43608 23.1904C7.40457 23.8225 6.86666 24.3093 6.23462 24.2778C4.52669 24.1926 3.08755 23.9377 2.0168 22.867C0.946038 21.7962 0.691147 20.3571 0.606012 18.6492C0.574507 18.0171 1.06134 17.4792 1.69338 17.4477ZM11.2569 23.1755C11.2569 22.5426 11.77 22.0296 12.4028 22.0296H21.5694C22.2023 22.0296 22.7153 22.5426 22.7153 23.1755C22.7153 23.8083 22.2023 24.3213 21.5694 24.3213H12.4028C11.77 24.3213 11.2569 23.8083 11.2569 23.1755Z" fill="url(#paint2_linear_1_976)"/>
<path fill-rule="evenodd" clip-rule="evenodd" d="M0.5625 7.89583C0.5625 7.26301 1.07551 6.75 1.70833 6.75H10.875C11.5078 6.75 12.0208 7.26301 12.0208 7.89583C12.0208 8.52866 11.5078 9.04167 10.875 9.04167H1.70833C1.07551 9.04167 0.5625 8.52866 0.5625 7.89583Z" fill="url(#paint3_linear_1_976)"/>
<path fill-rule="evenodd" clip-rule="evenodd" d="M0.5625 12.474C0.5625 11.8411 1.07551 11.3281 1.70833 11.3281H7.81944C8.45227 11.3281 8.96528 11.8411 8.96528 12.474C8.96528 13.1068 8.45227 13.6198 7.81944 13.6198H1.70833C1.07551 13.6198 0.5625 13.1068 0.5625 12.474Z" fill="url(#paint4_linear_1_976)"/>
<path fill-rule="evenodd" clip-rule="evenodd" d="M26.0917 6.05654C25.4935 5.99614 24.7269 5.99479 23.5923 5.99479H20.8099C20.1771 5.99479 19.6641 5.48179 19.6641 4.84896C19.6641 4.21613 20.1771 3.70313 20.8099 3.70313L23.6491 3.70313C24.7125 3.7031 25.5951 3.70308 26.3219 3.77647C27.0873 3.85377 27.7728 4.01919 28.4198 4.40563C29.0668 4.79208 29.5374 5.31716 29.9683 5.95447C30.3775 6.55959 30.7959 7.33667 31.3001 8.27296L33.2771 11.9446C33.5771 12.5018 33.3687 13.1967 32.8115 13.4967C32.2543 13.7967 31.5594 13.5883 31.2594 13.0311L29.3093 9.40949C28.7713 8.41049 28.4068 7.73623 28.07 7.23817C27.7477 6.76154 27.5024 6.52701 27.2446 6.37307C26.9869 6.21912 26.6641 6.11435 26.0917 6.05654Z" fill="url(#paint5_linear_1_976)"/>
<defs>
<linearGradient id="paint0_linear_1_976" x1="24.6233" y1="18.9766" x2="24.6233" y2="27.3793" gradientUnits="userSpaceOnUse">
<stop stop-color="#C1842D"/>
<stop offset="1" stop-color="#ECC974"/>
</linearGradient>
<linearGradient id="paint1_linear_1_976" x1="9.34983" y1="18.9766" x2="9.34983" y2="27.3793" gradientUnits="userSpaceOnUse">
<stop stop-color="#C1842D"/>
<stop offset="1" stop-color="#ECC974"/>
</linearGradient>
<linearGradient id="paint2_linear_1_976" x1="16.9861" y1="0.640625" x2="16.9861" y2="24.3213" gradientUnits="userSpaceOnUse">
<stop stop-color="#C1842D"/>
<stop offset="1" stop-color="#ECC974"/>
</linearGradient>
<linearGradient id="paint3_linear_1_976" x1="6.29167" y1="6.75" x2="6.29167" y2="9.04167" gradientUnits="userSpaceOnUse">
<stop stop-color="#C1842D"/>
<stop offset="1" stop-color="#ECC974"/>
</linearGradient>
<linearGradient id="paint4_linear_1_976" x1="4.76389" y1="11.3281" x2="4.76389" y2="13.6198" gradientUnits="userSpaceOnUse">
<stop stop-color="#C1842D"/>
<stop offset="1" stop-color="#ECC974"/>
</linearGradient>
<linearGradient id="paint5_linear_1_976" x1="26.5392" y1="3.70312" x2="26.5392" y2="13.6339" gradientUnits="userSpaceOnUse">
<stop stop-color="#C1842D"/>
<stop offset="1" stop-color="#ECC974"/>
</linearGradient>
</defs>
</svg>
