<svg width="36" height="34" viewBox="0 0 36 34" fill="none" xmlns="http://www.w3.org/2000/svg">
<path fill-rule="evenodd" clip-rule="evenodd" d="M30.08 13.3555C29.9425 13.2783 29.7699 13.2384 29.5907 13.2529C29.4913 13.261 29.3538 13.3037 28.5151 13.6857C28.1489 13.8525 27.9432 13.9485 27.7847 14.0634C27.6637 14.1511 27.6248 14.2125 27.5999 14.2854C27.5979 14.2944 27.5917 14.3271 27.587 14.4041C27.5791 14.533 27.5785 14.7045 27.5785 15.0074V22.3259C27.5785 22.6288 27.5791 22.8003 27.587 22.9292C27.5917 23.0062 27.5979 23.0389 27.5999 23.0479C27.6248 23.1208 27.6637 23.1822 27.7847 23.2699C27.9432 23.3848 28.1489 23.4808 28.5151 23.6476C29.3538 24.0296 29.4913 24.0724 29.5907 24.0804C29.7699 24.0949 29.9425 24.055 30.08 23.9778C30.1433 23.9423 30.2283 23.8713 30.7965 23.1811C31.0254 22.9031 31.2388 22.657 31.4447 22.4196C31.7516 22.0657 32.0418 21.7311 32.342 21.3383C32.8088 20.7273 33.1342 20.1721 33.2819 19.6313C33.4552 18.9972 33.4552 18.3361 33.2819 17.702C33.1915 17.371 33.0115 17.0043 32.6245 16.4549C32.2288 15.8932 31.6747 15.2189 30.8766 14.2495C30.7624 14.1108 30.6876 14.0143 30.6222 13.93C30.5438 13.8289 30.479 13.7454 30.3762 13.6276C30.2312 13.4615 30.1387 13.3884 30.08 13.3555ZM27.6006 23.0506C27.6006 23.0506 27.6004 23.0499 27.6 23.0481L27.6006 23.0506ZM27.6006 14.2827C27.6007 14.2828 27.6005 14.2837 27.6 14.2852L27.6006 14.2827ZM29.3891 10.7611C30.0514 10.7075 30.7219 10.8489 31.3037 11.1754C31.7218 11.4101 32.034 11.7251 32.2595 11.9835C32.3841 12.1262 32.5526 12.3398 32.6751 12.4952C32.7317 12.567 32.7785 12.6263 32.8066 12.6605L31.8416 13.455L32.8066 12.6605L32.8375 12.6979C33.5975 13.621 34.2121 14.3676 34.6683 15.0152C35.1394 15.684 35.4963 16.3212 35.6936 17.0432C35.9846 18.1086 35.9846 19.2247 35.6936 20.2901C35.4217 21.2852 34.8745 22.1416 34.3284 22.8562C33.9978 23.2888 33.5969 23.7534 33.2438 24.1626C33.0507 24.3864 32.8718 24.5937 32.7265 24.7702L31.7615 23.9756L32.7265 24.7702C32.6944 24.8092 32.6624 24.8482 32.6304 24.8872C32.2286 25.3774 31.832 25.8614 31.3037 26.1579C30.7219 26.4844 30.0514 26.6258 29.3891 26.5723C28.793 26.524 28.2238 26.2636 27.6189 25.9868C27.5725 25.9655 27.5258 25.9441 27.4789 25.9227C27.4451 25.9074 27.4087 25.8911 27.3702 25.8739C26.7766 25.6087 25.6573 25.1086 25.231 23.8468C25.076 23.3879 25.0772 22.8973 25.0783 22.4408C25.0784 22.4022 25.0785 22.3639 25.0785 22.3259V15.0074C25.0785 14.9694 25.0784 14.9311 25.0783 14.8926C25.0772 14.436 25.076 13.9454 25.231 13.4865C25.6573 12.2247 26.7766 11.7246 27.3702 11.4594C27.4087 11.4422 27.4451 11.426 27.4789 11.4106C27.5258 11.3892 27.5725 11.3678 27.6189 11.3466C28.2238 11.0698 28.793 10.8093 29.3891 10.7611Z" fill="url(#paint0_linear_1_960)"/>
<path fill-rule="evenodd" clip-rule="evenodd" d="M5.89902 13.4064C6.06345 13.2834 6.19526 13.2365 6.40184 13.2533C6.50118 13.2613 6.63867 13.304 7.47739 13.686C8.11672 13.9772 8.19378 14.0261 8.23692 14.0636C8.31155 14.1285 8.34207 14.1821 8.36698 14.283C8.40372 14.4317 8.41401 14.6294 8.41401 15.0077V22.3262C8.41401 22.7046 8.40372 22.9022 8.36698 23.051C8.34207 23.1518 8.31155 23.2055 8.23692 23.2704C8.19378 23.3079 8.11672 23.3568 7.47739 23.648C6.63867 24.03 6.50118 24.0727 6.40184 24.0807C6.19981 24.0971 6.07397 24.0527 5.92492 23.9466C5.72364 23.8035 5.52102 23.5762 5.19604 23.1815C4.9671 22.9034 4.75372 22.6574 4.54785 22.42C4.24092 22.0661 3.9507 21.7314 3.65052 21.3386C3.18367 20.7276 2.85834 20.1725 2.7106 19.6317C2.53737 18.9976 2.53737 18.3364 2.7106 17.7023C2.80101 17.3714 2.98104 17.0046 3.36801 16.4553C3.7637 15.8935 4.31784 15.2192 5.1159 14.2499C5.46733 13.823 5.67633 13.573 5.89902 13.4064ZM3.18587 12.6608L4.15088 13.4553L3.18587 12.6608L3.15505 12.6983C2.39503 13.6214 1.78041 14.3679 1.32418 15.0156C0.853091 15.6843 0.496214 16.3215 0.298967 17.0435C0.00790882 18.1089 0.00790882 19.2251 0.298967 20.2905C0.570792 21.2855 1.11801 22.1419 1.6641 22.8565C1.9947 23.2892 2.39557 23.7537 2.7487 24.1629C2.94186 24.3867 3.12073 24.594 3.26601 24.7705L4.23103 23.976L3.26601 24.7705C3.28129 24.789 3.29687 24.808 3.31276 24.8274C3.88594 25.5254 4.86158 26.7135 6.60338 26.5726C7.19955 26.5244 7.76873 26.2639 8.37357 25.9871C8.42004 25.9658 8.46673 25.9445 8.51365 25.9231C8.55002 25.9065 8.58637 25.89 8.62265 25.8736C9.07714 25.6675 9.52235 25.4657 9.87747 25.1568C10.9156 24.254 10.9146 23.0623 10.914 22.3733C10.914 22.3573 10.914 22.3416 10.914 22.3262V15.0077C10.914 14.9923 10.914 14.9767 10.914 14.9607C10.9146 14.2716 10.9156 13.08 9.87747 12.1772C9.52235 11.8683 9.07713 11.6665 8.62265 11.4604C8.58636 11.4439 8.55002 11.4275 8.51365 11.4109C8.46673 11.3895 8.42005 11.3682 8.37358 11.3469C7.76874 11.0701 7.19955 10.8096 6.60338 10.7614C4.84514 10.6192 3.85153 11.8421 3.28382 12.5408C3.24965 12.5828 3.21703 12.623 3.18587 12.6608Z" fill="url(#paint1_linear_1_960)"/>
<path fill-rule="evenodd" clip-rule="evenodd" d="M17.9948 3.25C12.0541 3.25 7.57812 7.34134 7.57812 12V13.25H5.07812V12C5.07812 5.61296 11.0488 0.75 17.9948 0.75C24.9408 0.75 30.9115 5.61296 30.9115 12V13.25H28.4115V12C28.4115 7.34134 23.9355 3.25 17.9948 3.25Z" fill="url(#paint2_linear_1_960)"/>
<path fill-rule="evenodd" clip-rule="evenodd" d="M29.6641 24.0859C30.3544 24.0859 30.9141 24.6456 30.9141 25.3359V26.6693C30.9141 30.551 27.0949 33.2526 22.9974 33.2526H19.6641C18.9737 33.2526 18.4141 32.693 18.4141 32.0026C18.4141 31.3122 18.9737 30.7526 19.6641 30.7526H22.9974C26.2636 30.7526 28.4141 28.6786 28.4141 26.6693V25.3359C28.4141 24.6456 28.9737 24.0859 29.6641 24.0859Z" fill="url(#paint3_linear_1_960)"/>
<defs>
<linearGradient id="paint0_linear_1_960" x1="30.495" y1="10.75" x2="30.495" y2="26.5833" gradientUnits="userSpaceOnUse">
<stop stop-color="#C1842D"/>
<stop offset="1" stop-color="#ECC974"/>
</linearGradient>
<linearGradient id="paint1_linear_1_960" x1="5.49737" y1="10.75" x2="5.49737" y2="26.5841" gradientUnits="userSpaceOnUse">
<stop stop-color="#C1842D"/>
<stop offset="1" stop-color="#ECC974"/>
</linearGradient>
<linearGradient id="paint2_linear_1_960" x1="17.9948" y1="0.75" x2="17.9948" y2="13.25" gradientUnits="userSpaceOnUse">
<stop stop-color="#C1842D"/>
<stop offset="1" stop-color="#ECC974"/>
</linearGradient>
<linearGradient id="paint3_linear_1_960" x1="24.6641" y1="24.0859" x2="24.6641" y2="33.2526" gradientUnits="userSpaceOnUse">
<stop stop-color="#C1842D"/>
<stop offset="1" stop-color="#ECC974"/>
</linearGradient>
</defs>
</svg>
