<svg width="283" height="308" viewBox="0 0 283 308" fill="none" xmlns="http://www.w3.org/2000/svg">
<path d="M296.288 354.204C290.745 357.897 283.386 357.004 278.462 352.521C262.767 338.233 242.436 325.464 217.47 314.215C187.686 300.581 152.919 292.691 113.168 290.542C78.4607 288.472 47.4505 291.952 20.1384 300.983C13.6703 303.123 6.45161 300.932 2.67431 295.262C-1.02901 289.703 -0.385866 282.356 3.94277 277.269C22.2704 255.729 37.0843 230.714 48.3849 202.222C61.3079 169.388 68.0293 135.84 68.5494 101.578C68.9129 71.124 64.9448 43.887 56.6453 19.8679C54.4709 13.5756 56.5677 6.49339 62.1089 2.80201C67.7108 -0.929875 75.1454 -0.0713369 80.1294 4.45482C91.3813 14.6729 104.558 24.0258 119.66 32.5133C138.466 42.8892 159.151 51.1318 181.72 57.2393C204.389 62.839 227.671 66.0487 251.562 66.8706C282.668 67.7721 311.156 63.986 337.029 55.5098C343.377 53.43 350.433 55.6135 354.135 61.1716C357.894 66.8132 357.099 74.2841 352.652 79.4001C341.342 92.4124 331.174 108.02 322.15 126.217C311.365 148.378 303.122 171.707 297.42 196.208C291.516 220.402 288.864 243.53 289.466 265.592C290.232 293.019 294.268 316.848 301.58 337.078C303.847 343.353 301.839 350.506 296.288 354.204Z" fill="white" fill-opacity="0.4"/>
</svg>
